<svg xmlns="http://www.w3.org/2000/svg" viewBox="0 0 262.8 62"><title>Asset 10</title><g id="Layer_2" data-name="Layer 2"><g id="Layer_1-2" data-name="Layer 1"><path d="M26.75,62a13.18,13.18,0,0,1-9.34-3.86l-1.57-1.57L19,53.43,20.55,55A8.77,8.77,0,1,0,33,42.6l-20.05-20a13.21,13.21,0,0,1,0-18.68,13.19,13.19,0,0,1,18.67,0l1.57,1.57L30,8.58,28.44,7A8.77,8.77,0,0,0,16,19.41L36.09,39.46A13.2,13.2,0,0,1,26.75,62Z"/><polygon points="4.44 48.14 0 48.14 0 13.42 29.8 43.23 26.66 46.36 4.44 24.14 4.44 48.14"/><polygon points="48.62 48.14 44.18 48.14 44.18 24.14 34.37 33.95 31.23 30.81 48.62 13.42 48.62 48.14"/><path d="M70.33,19.3h3V36.93H77.5v2.39H70.33Z"/><path d="M84.22,19.3h3v20h-3Z"/><path d="M95.48,19.3h7.42v2.4H98.52v6h3.38v2.39H98.52v6.86H103v2.39H95.48Z"/><path d="M108.73,19.3h2.91L113,31.4l.16,2.82h.29l.28-3.17,2.16-11.75h2.42l2.06,11.75.24,3.17h.3L121,31.4l1.23-12.1h2.92l-2.8,20H119.3l-1.65-9.62-.52-4.18h-.23l-.51,4.18-1.73,9.62h-3Z"/><path d="M142.07,19.3h4L148,27.05q.31,1.29.48,2.46c.12.77.24,1.51.34,2.19h.1c.11-.68.22-1.42.34-2.19s.28-1.6.48-2.46l2-7.75h3.88v20h-2.84V32.7c0-1,0-2,0-2.93s0-1.8.08-2.58.06-1.48.1-2.08S153,24,153,23.68h-.22l-3,13.06h-1.92l-3.05-13.06h-.22c0,.35.07.82.11,1.43s.07,1.29.1,2.08.06,1.64.08,2.58,0,1.91,0,2.93v6.62h-2.84Z"/><path d="M163.77,19.3h3v20h-3Z"/><path d="M175,19.3h2.46l4.85,13.4h.07c0-.31-.06-.66-.09-1s-.08-.82-.11-1.31-.06-1-.08-1.66,0-1.31,0-2.08V19.3h2.72v20h-2.48l-4.83-13h-.09q0,.52.09,1.14c0,.41.07.89.1,1.45s.06,1.2.09,1.94,0,1.61,0,2.63v5.88H175Z"/><path d="M202.19,35.27a8.68,8.68,0,0,1,.08-1.19c0-.37.13-.76.23-1.18h2.35v1a9.91,9.91,0,0,0,.1,1.43,3.6,3.6,0,0,0,.33,1.05,1.57,1.57,0,0,0,.61.64,2.1,2.1,0,0,0,2.26-.25,2,2,0,0,0,.45-1.39,5.71,5.71,0,0,0-.06-.86,3.48,3.48,0,0,0-.22-.78,5.94,5.94,0,0,0-.43-.82,11.5,11.5,0,0,0-.69-.95L204,28.18a9.8,9.8,0,0,1-1.3-2.18,6.1,6.1,0,0,1-.45-2.34,5.08,5.08,0,0,1,.31-1.82,3.93,3.93,0,0,1,.89-1.44,4.18,4.18,0,0,1,1.45-.94,5.39,5.39,0,0,1,1.95-.33,5.7,5.7,0,0,1,2.21.37,3.72,3.72,0,0,1,1.41,1,3.64,3.64,0,0,1,.75,1.36,5.68,5.68,0,0,1,.21,1.52,6.29,6.29,0,0,1-.1,1.19c-.06.36-.14.76-.23,1.2h-2.34v-1a5.19,5.19,0,0,0-.46-2.44,1.55,1.55,0,0,0-1.48-.85,1.65,1.65,0,0,0-1.28.47,1.86,1.86,0,0,0-.42,1.28,4.42,4.42,0,0,0,.06.76,3,3,0,0,0,.19.62,3,3,0,0,0,.3.56,5.9,5.9,0,0,0,.4.56L209.62,30a12.17,12.17,0,0,1,1.48,2.41,6,6,0,0,1,.52,2.44,5.3,5.3,0,0,1-.34,1.92,4.06,4.06,0,0,1-.95,1.46,4.56,4.56,0,0,1-1.5.92,6.69,6.69,0,0,1-4.24,0,3.75,3.75,0,0,1-1.43-1,3.26,3.26,0,0,1-.75-1.36A5.75,5.75,0,0,1,202.19,35.27Z"/><path d="M219,19.3h3v8.38h3.6V19.3h3v20h-3V30.07H222v9.25h-3Z"/><path d="M239.09,19.3h3.49l3.7,20h-3.07l-.55-3.59H239l-.52,3.59h-3.09Zm3.22,14.15-1.41-10h-.13l-1.41,10Z"/><path d="M253,19.3h2.47l4.85,13.4h.07c0-.31-.06-.66-.1-1s-.07-.82-.1-1.31-.06-1-.08-1.66,0-1.31,0-2.08V19.3h2.72v20h-2.48l-4.83-13h-.1c0,.35.06.73.1,1.14s.07.89.1,1.45.06,1.2.08,1.94,0,1.61,0,2.63v5.88H253Z"/></g></g></svg>